# xmcd
#
# Track frame offsets: 
#        150
#        18439
#        30740
#        43424
#        60003
#        72205
#        85393
#        102205
#        117320
#        137344
#        157033
#        174794
#        187422
#        204961
#        227679
#        241717
#
# Disc length: 3422 seconds
#
# Revision: 0
# Processed by: cddbd v1.5.2PL0 Copyright (c) Steve Scherf et al.
# Submitted via: ExactAudioCopyFreeDBPlugin 1.0
#
DISCID=cc0d5c10
DTITLE=Colin Buchanan - The Songwriter Sessions
DYEAR=2012
DGENRE=Country
TTITLE0=Colin Buchanan with Lee Kernaghan and Sara Storer - Song of Aust
TTITLE0=ralia
TTITLE1=Colin Buchanan with John Williamson - Farm Cars
TTITLE2=Colin Buchanan with Diana Corcoran - For The Rest Of My Life
TTITLE3=Colin Buchanan with Troy Cassar-Daley - Big River Country
TTITLE4=Colin Buchanan with Dobe Newton - Road To Thargomindah
TTITLE5=Colin Buchanan with Sara Storer - Somewhere In My Heart
TTITLE6=Galahs In The Gidgee
TTITLE7=Colin Buchanan with Peter Denahy - Over The Floodways
TTITLE8=Colin Buchanan with Lee Kernaghan - Missin' Slim
TTITLE9=Colin Buchanan with Anne Kirkpatrick - Still Here To Give It M
TTITLE9=y Best
TTITLE10=Songwriter
TTITLE11=Colin Buchanan with Markus Meier - Take It Like A Man
TTITLE12=She's My Ute
TTITLE13=Colin Buchanan with Troy Cassar-Daley - Family Farm
TTITLE14=They Don't Make Em Like That Anymore
TTITLE15=The Karloo Blessing
EXTD=
EXTT0=
EXTT1=
EXTT2=
EXTT3=
EXTT4=
EXTT5=
EXTT6=
EXTT7=
EXTT8=
EXTT9=
EXTT10=
EXTT11=
EXTT12=
EXTT13=
EXTT14=
EXTT15=
PLAYORDER=
